<?xml version="1.0" encoding="UTF-8" ?>
<?xml-stylesheet type="text/css" href="svg.css"?>
<!--!DOCTYPE svg PUBLIC "-//W3C//DTD SVG 1.1//EN" "http://www.w3.org/Graphics/SVG/1.1/DTD/svg11.dtd"-->
<svg width="1000pt" height="auto" viewBox="0 0 960 540" version="1.1" xmlns="http://www.w3.org/2000/svg">
<g class="group" id="#000000ff">
    <path class="a24 protoboard" fill="#000000" opacity="1.00" d=" M 403.28 446.47 C 426.53 445.96 449.83 446.40 473.09 446.25 C 478.02 445.75 482.61 450.16 482.29 455.11 C 482.32 463.74 482.33 472.37 482.28 480.99 C 482.55 485.89 477.86 490.07 473.07 489.62 C 450.68 489.62 428.29 489.63 405.90 489.62 C 401.11 490.03 396.45 485.80 396.78 480.91 C 396.75 472.28 396.75 463.64 396.78 455.01 C 396.59 451.10 399.47 447.33 403.28 446.47 M 408.35 453.35 C 406.08 454.17 407.19 457.14 406.88 458.97 C 407.22 461.08 405.86 464.93 408.91 465.42 C 412.62 465.58 416.36 465.59 420.07 465.40 C 422.76 464.48 421.49 461.09 421.83 458.99 C 421.58 457.12 422.60 453.83 420.03 453.31 C 416.14 453.15 412.23 453.09 408.35 453.35 M 433.33 453.41 C 431.11 454.75 432.27 457.81 431.96 459.94 C 432.13 461.81 431.37 464.95 433.98 465.41 C 437.69 465.60 441.41 465.57 445.12 465.42 C 448.01 464.67 446.73 461.16 447.05 459.01 C 446.78 457.16 447.78 454.29 445.59 453.36 C 441.52 453.12 437.39 453.06 433.33 453.41 M 458.39 453.49 C 456.13 455.92 457.71 460.05 457.36 463.13 C 457.59 466.82 462.58 465.12 465.02 465.52 C 467.29 465.18 471.91 466.68 472.08 463.19 C 471.84 460.09 473.12 456.15 471.21 453.58 C 467.05 452.90 462.58 453.08 458.39 453.49 M 408.27 471.44 C 406.11 473.90 407.61 478.01 407.30 481.10 C 407.18 483.66 410.32 483.29 412.05 483.30 C 415.20 483.00 418.68 483.99 421.62 482.60 C 422.57 479.47 422.03 476.00 421.99 472.75 C 421.58 470.52 418.64 471.08 416.99 470.98 C 414.10 471.18 411.02 470.51 408.27 471.44 M 433.31 471.54 C 431.59 473.11 432.76 475.92 432.40 478.00 C 432.63 479.69 431.71 482.57 434.01 483.17 C 438.01 483.36 442.04 483.42 446.03 483.12 C 448.17 481.92 447.05 478.96 447.38 476.98 C 447.20 474.95 448.11 471.20 445.09 471.08 C 441.21 471.16 437.01 470.40 433.31 471.54 M 459.18 471.17 C 458.86 471.37 458.23 471.75 457.91 471.94 C 457.21 475.24 457.40 478.74 457.78 482.08 C 458.07 482.35 458.66 482.88 458.95 483.14 C 462.97 483.39 467.01 483.38 471.03 483.16 C 473.48 482.17 472.20 479.01 472.56 477.00 C 472.28 475.09 473.32 472.18 471.09 471.20 C 467.14 470.84 463.13 470.87 459.18 471.17 Z" />
    <path class="a1" fill="#000000" opacity="1.00" d=" M 0.00 0.00 L 0.22 0.00 C 0.16 0.05 0.05 0.15 0.00 0.20 L 0.00 0.00 Z" />
        <g id="finger" class="fingers">
            <path class="a2 finger" fill="#000000" opacity="1.00" d=" M 444.23 10.18 C 451.58 8.38 459.88 10.39 465.33 15.72 C 470.29 20.35 473.06 27.21 472.57 33.99 C 472.25 37.95 473.29 42.37 470.95 45.88 C 468.84 49.22 464.78 50.99 460.89 50.48 C 452.31 49.69 443.67 50.37 435.09 49.66 C 430.32 49.33 426.45 44.74 426.48 40.03 C 426.48 37.04 426.68 34.05 426.75 31.05 C 427.04 21.24 434.67 12.28 444.23 10.18 Z" />
            <path class="a3 finger" fill="#000000" opacity="1.00" d=" M 380.47 33.72 C 388.10 31.98 396.53 34.37 401.91 40.10 C 407.60 45.88 409.52 54.17 410.06 62.01 C 409.75 66.00 406.76 69.90 402.72 70.65 C 394.07 72.39 385.40 74.01 376.74 75.72 C 371.57 77.06 365.74 73.39 364.85 68.10 C 364.21 64.71 363.46 61.36 362.62 58.03 C 361.27 46.97 369.53 35.79 380.47 33.72 Z" />
            <path class="a4 finger" fill="#000000" opacity="1.00" d=" M 508.34 35.25 C 514.08 34.26 520.28 35.55 525.02 38.99 C 532.32 44.08 535.91 53.90 533.71 62.51 C 532.87 65.66 532.72 69.12 530.98 71.96 C 528.83 75.10 524.72 76.90 520.96 76.09 C 512.89 74.51 504.87 72.71 496.81 71.10 C 491.78 70.37 487.91 65.04 489.01 60.03 C 489.63 56.71 490.21 53.37 491.04 50.09 C 493.54 42.51 500.43 36.53 508.34 35.25 Z" />
            <path class="a6 finger" fill="#000000" opacity="1.00" d=" M 555.47 75.66 C 563.05 73.73 571.56 76.33 576.75 82.20 C 582.70 88.88 584.04 99.50 579.17 107.16 C 576.92 111.45 571.17 113.28 566.83 111.17 C 560.53 108.18 554.31 105.02 548.01 102.04 C 543.74 100.49 539.89 96.82 540.14 91.95 C 540.95 83.94 547.88 77.55 555.47 75.66 Z" />
            <path class="a7 finger" fill="#000000" opacity="1.00" d=" M 341.56 155.71 C 349.43 154.19 357.94 156.76 363.70 162.31 C 366.14 164.95 368.62 168.17 368.39 171.98 C 368.33 175.22 366.33 177.99 363.88 179.94 C 356.51 186.21 349.20 192.56 341.82 198.81 C 338.35 201.97 332.42 202.47 328.92 199.10 C 323.56 193.59 320.30 185.84 321.15 178.09 C 321.94 167.18 330.76 157.48 341.56 155.71 Z" />
        </g>
        <g id="potenciometer" class="potenciometers">
            <path class="a8 potenciometer" fill="#000000" opacity="1.00" d=" M 381.90 271.96 C 382.28 268.49 386.79 266.01 389.73 268.23 C 392.33 270.29 393.29 274.02 392.27 277.14 C 389.42 277.06 386.55 277.23 383.80 278.04 C 382.89 276.12 381.79 274.15 381.90 271.96 Z" />
            <path class="a9 potenciometer" fill="#000000" opacity="1.00" d=" M 532.81 279.90 C 528.99 275.86 533.43 266.74 539.20 269.73 C 543.20 271.42 542.20 276.24 540.77 279.39 C 538.10 279.38 535.44 279.45 532.81 279.90 Z" />
            <path class="a10 potenciometer" fill="#000000" opacity="1.00" d=" M 498.80 276.05 C 500.48 273.48 504.52 273.22 506.58 275.47 C 508.69 277.63 507.99 280.90 507.65 283.58 C 504.51 283.46 501.38 283.45 498.25 283.47 C 497.87 281.04 497.23 278.21 498.80 276.05 Z" />
            <path class="a12 potenciometer" fill="#000000" opacity="1.00" d=" M 421.71 276.69 C 423.47 274.14 427.59 274.01 429.54 276.41 C 431.43 278.28 430.76 281.13 430.67 283.50 C 427.36 283.45 424.04 283.44 420.73 283.61 C 420.79 281.30 420.03 278.62 421.71 276.69 Z" />
            <path class="a13 potenciometer" fill="#000000" opacity="1.00" d=" M 460.53 283.48 C 462.52 281.28 466.44 281.44 468.19 283.88 C 469.88 286.05 469.29 288.99 468.88 291.49 C 465.73 291.37 462.58 291.36 459.44 291.40 C 459.08 288.78 458.47 285.58 460.53 283.48 Z" />
        </g>
        <g id="motor" class="motors">
            <path class="a14 motor" fill="#000000" opacity="1.00" d=" M 382.94 290.56 C 385.78 289.43 388.90 287.97 391.98 289.03 C 394.91 289.73 397.04 292.24 397.88 295.05 C 399.99 301.43 402.32 307.73 404.33 314.13 C 404.76 319.44 404.34 324.79 404.53 330.11 C 400.55 332.56 395.17 334.93 390.76 332.20 C 387.65 330.53 386.87 326.91 385.80 323.86 C 383.23 316.19 380.51 308.56 377.98 300.88 C 376.53 296.83 378.93 292.00 382.94 290.56 Z" />
            <path class="a15 motor" fill="#000000" opacity="1.00" d=" M 529.47 297.00 C 530.55 293.01 534.94 290.14 539.02 291.09 C 541.08 291.50 543.13 292.04 545.05 292.92 C 548.51 294.56 550.47 298.81 549.41 302.51 C 547.37 310.29 545.07 318.00 543.10 325.80 C 536.49 326.56 529.99 328.17 523.79 330.55 C 524.09 325.71 523.38 320.81 524.22 316.02 C 525.98 309.68 527.65 303.32 529.47 297.00 Z" />
            <path class="a16 motor" fill="#000000" opacity="1.00" d=" M 421.37 295.44 C 425.82 294.43 431.75 294.02 434.85 298.12 C 436.72 300.29 436.76 303.29 436.72 306.00 C 436.63 314.70 436.81 323.40 436.63 332.10 C 436.51 337.35 431.00 340.83 426.08 340.04 C 421.26 340.71 416.07 337.03 416.04 331.99 C 415.89 322.68 416.00 313.36 415.99 304.05 C 415.74 300.41 417.94 296.75 421.37 295.44 Z" />
            <path class="a17 motor" fill="#000000" opacity="1.00" d=" M 498.01 295.15 C 501.29 294.76 504.93 294.38 507.99 295.90 C 510.87 297.48 512.57 300.74 512.41 304.00 C 512.43 312.99 512.42 321.99 512.41 330.99 C 512.54 334.02 511.09 337.08 508.48 338.68 C 506.01 340.35 502.89 340.03 500.07 339.99 C 495.79 340.03 491.77 336.29 491.74 331.97 C 491.61 322.66 491.71 313.35 491.69 304.05 C 491.42 300.08 494.10 296.09 498.01 295.15 Z" />
            <path class="a18 motor" fill="#000000" opacity="1.00" d=" M 458.35 303.44 C 463.78 301.65 472.15 302.38 473.70 309.06 C 474.28 319.01 473.83 329.03 473.94 339.00 C 474.15 343.06 471.00 346.97 466.99 347.60 C 464.99 347.84 462.97 347.83 460.97 347.69 C 456.65 347.47 453.03 343.36 453.25 339.06 C 453.23 329.68 453.19 320.31 453.27 310.94 C 453.18 307.68 455.37 304.66 458.35 303.44 Z" />
        </g>
        <g id="controller" class="controllers">
            <path class="a23 controller" fill="#000000" opacity="1.00" d=" M 512.13 401.86 C 527.56 411.85 546.73 415.06 564.74 412.08 C 567.03 418.61 568.54 425.39 570.51 432.02 C 574.62 444.36 566.60 459.03 553.95 462.10 C 541.90 465.85 527.82 458.13 524.51 445.97 C 520.32 431.29 516.31 416.55 512.13 401.86 Z" />
            <path class="a19 controller" fill="#000000" opacity="1.00" d=" M 540.51 336.74 C 556.58 334.02 574.05 336.88 587.45 346.49 C 594.10 351.35 599.79 358.45 600.68 366.89 C 601.63 375.11 597.43 383.03 591.60 388.55 C 583.61 396.20 572.82 400.13 562.08 401.94 C 547.66 403.95 532.39 401.69 519.77 394.23 C 511.77 389.39 504.62 381.69 503.33 372.10 C 502.14 364.07 505.99 356.13 511.64 350.62 C 519.41 342.99 529.86 338.51 540.51 336.74 M 539.68 344.85 C 531.94 346.12 523.27 347.75 517.81 353.87 C 514.80 357.36 517.42 362.21 520.87 364.19 C 529.84 369.71 540.66 371.20 551.03 371.14 C 561.83 371.33 573.14 370.08 582.60 364.47 C 585.78 362.66 588.75 358.72 586.80 354.99 C 584.13 350.41 578.73 348.59 574.01 346.89 C 562.88 343.82 551.10 343.24 539.68 344.85 Z" />
        </g>
        <g id="uno" class="unos">
            <path class="a21 uno" fill="#000000" opacity="1.00" d=" M 410.08 373.37 C 429.73 373.10 449.38 373.32 469.03 373.25 C 473.89 372.82 478.40 377.20 478.08 382.08 C 478.12 390.70 478.12 399.32 478.08 407.94 C 478.39 412.77 473.82 416.97 469.08 416.62 C 450.02 416.62 430.96 416.63 411.91 416.62 C 407.20 416.97 402.63 412.81 402.92 408.01 C 402.87 399.34 402.87 390.67 402.91 382.00 C 402.70 377.87 405.96 373.87 410.08 373.37 M 441.73 380.68 C 441.53 385.47 441.87 390.26 441.70 395.06 C 439.67 390.79 438.06 386.33 436.06 382.05 C 435.46 379.80 432.92 380.62 431.29 380.73 C 431.18 389.22 431.13 397.72 431.32 406.21 C 432.46 406.29 434.74 406.46 435.88 406.55 C 435.98 401.68 435.82 396.82 435.92 391.96 C 438.47 396.50 440.28 401.45 442.86 405.99 C 443.72 406.14 445.44 406.43 446.31 406.58 C 446.42 397.88 446.52 389.17 445.65 380.51 C 444.33 380.56 443.03 380.62 441.73 380.68 M 412.96 380.66 C 412.93 387.60 412.25 394.68 413.63 401.54 C 414.69 408.00 425.77 408.46 427.40 402.16 C 429.25 395.18 428.17 387.85 427.84 380.74 C 426.48 380.64 425.12 380.57 423.76 380.56 C 423.41 387.04 424.05 393.55 423.36 400.01 C 423.24 402.92 417.51 403.55 418.10 400.01 C 417.60 393.59 417.78 387.12 417.06 380.70 C 415.69 380.62 414.32 380.61 412.96 380.66 M 453.17 381.21 C 448.67 383.59 449.13 389.57 448.96 393.92 C 449.15 397.99 448.91 403.64 453.23 405.74 C 456.88 407.04 462.13 407.17 464.59 403.63 C 466.65 399.80 466.37 395.25 466.33 391.04 C 466.07 387.65 465.91 383.36 462.62 381.42 C 459.69 380.13 456.17 380.17 453.17 381.21 Z" />
            <path class="a22 uno" fill="#000000" opacity="1.00" d=" M 454.74 386.52 C 455.22 383.95 458.18 384.10 460.17 383.89 C 461.55 389.32 461.40 395.09 460.71 400.61 C 460.12 403.22 457.06 402.62 455.09 402.77 C 454.01 397.45 453.99 391.88 454.74 386.52 Z" />
        </g>
        <g id="hand" class="hands">
            <path class="a5 hand" fill="#000000" opacity="1.00" d=" M 426.48 72.07 C 426.22 66.95 430.21 62.15 435.14 61.09 C 438.22 60.67 441.34 60.90 444.44 60.88 C 444.74 98.91 445.00 136.94 445.32 174.97 C 449.51 207.29 453.92 239.58 458.12 271.90 C 461.22 270.80 464.46 270.18 467.77 270.46 C 463.71 243.53 460.52 216.45 456.79 189.46 C 455.95 181.30 454.02 173.22 454.22 164.98 C 453.99 130.27 453.69 95.55 453.45 60.84 C 458.41 60.95 464.29 59.94 468.07 64.01 C 473.08 68.65 471.26 75.98 471.30 82.01 C 471.38 98.32 471.10 114.64 471.51 130.95 C 475.38 116.89 477.83 102.43 481.28 88.25 C 482.57 82.89 488.45 79.15 493.85 80.21 C 501.50 81.71 509.11 83.47 516.72 85.18 C 522.38 86.30 526.31 92.44 525.13 98.06 C 522.74 110.33 519.46 122.44 517.35 134.77 L 518.78 134.39 C 521.71 128.39 524.26 122.20 527.13 116.17 C 529.55 110.71 536.76 108.35 542.04 111.00 C 544.29 111.76 546.37 113.69 548.89 112.95 L 548.20 113.66 C 538.99 132.44 530.27 151.48 521.20 170.33 C 519.44 173.64 519.82 177.49 519.98 181.10 C 522.34 207.00 525.27 232.85 527.47 258.76 C 530.59 257.85 533.77 257.12 537.04 257.61 C 534.39 231.08 531.82 204.54 529.15 178.01 C 529.00 176.48 528.91 174.88 529.69 173.49 C 538.54 154.81 547.36 136.11 556.20 117.43 C 559.92 119.38 564.62 120.35 567.00 124.14 C 569.34 127.49 569.55 132.03 567.74 135.66 C 559.81 153.08 551.94 170.53 543.99 187.94 C 542.98 189.81 543.16 191.95 543.20 194.00 C 543.55 211.58 543.58 229.27 540.75 246.68 C 540.14 250.67 539.25 254.61 538.87 258.63 C 535.25 258.81 531.73 260.15 528.05 259.36 C 527.94 262.24 525.17 263.65 523.80 265.88 C 520.54 271.70 519.59 279.24 523.40 285.06 C 521.95 286.88 520.60 288.78 519.35 290.75 C 518.56 289.85 517.77 288.96 517.00 288.07 C 518.61 283.93 519.05 279.33 518.01 274.99 C 516.45 268.65 510.44 263.66 503.87 263.50 C 501.24 263.46 498.59 263.36 495.97 263.62 C 493.45 264.06 493.21 267.02 491.49 268.48 C 486.59 273.26 486.68 280.91 488.41 287.06 C 484.73 290.02 482.06 294.00 480.64 298.50 C 479.89 297.64 479.15 296.79 478.41 295.94 C 479.93 291.72 480.14 287.07 479.20 282.71 C 477.85 277.25 473.12 273.39 467.97 271.63 C 465.91 271.55 463.85 271.46 461.81 271.27 C 461.41 273.09 459.46 272.36 458.22 272.46 C 454.64 274.23 451.40 277.00 449.85 280.76 C 447.88 285.57 448.54 290.93 449.72 295.85 L 448.35 295.46 C 448.02 296.82 447.76 298.20 447.50 299.58 C 447.22 294.68 444.02 290.60 440.46 287.52 C 441.30 283.43 441.74 279.13 440.63 275.05 C 438.85 269.08 433.05 264.39 426.77 264.29 C 423.88 264.77 421.10 265.74 418.15 265.76 C 415.75 267.81 413.12 269.80 411.75 272.73 C 409.43 277.43 410.08 282.91 411.03 287.88 C 411.42 287.78 412.20 287.57 412.59 287.47 C 411.21 288.58 409.87 289.74 408.53 290.88 C 407.29 287.06 404.81 283.87 401.85 281.21 C 405.19 273.47 401.87 264.16 395.63 258.98 C 393.09 258.10 390.29 258.94 387.77 257.97 C 384.48 256.85 380.85 257.77 378.05 259.68 C 367.64 246.86 357.07 234.17 346.63 221.38 C 344.49 218.98 344.20 215.66 344.53 212.61 C 356.94 226.81 368.85 241.48 381.38 255.58 C 385.09 256.58 389.06 256.92 392.84 256.14 C 392.85 255.96 392.86 255.59 392.86 255.40 C 378.55 238.81 364.56 221.95 350.22 205.39 C 348.75 206.66 347.26 207.92 345.81 209.21 C 346.75 207.70 347.93 206.34 349.37 205.27 C 356.21 199.80 362.87 194.11 369.70 188.63 C 373.92 184.97 380.88 185.17 384.79 189.17 C 386.60 191.06 388.16 193.16 389.92 195.10 C 384.16 162.37 377.58 129.77 371.59 97.08 C 371.05 93.48 372.82 89.87 375.46 87.51 C 378.16 84.93 382.13 84.98 385.51 83.95 C 396.52 144.24 407.48 204.54 418.37 264.86 C 421.13 263.41 424.21 263.24 427.26 263.64 C 416.44 203.22 405.37 142.83 394.37 82.44 C 397.92 81.84 401.42 80.88 405.03 80.63 C 410.31 80.55 415.16 84.81 416.04 89.98 C 418.82 104.04 421.23 118.18 424.14 132.21 C 427.60 133.23 426.26 128.95 426.41 126.95 C 426.18 108.66 426.13 90.36 426.48 72.07 M 499.93 82.00 C 494.50 108.38 488.78 134.70 483.56 161.11 C 482.94 167.03 484.10 172.95 484.59 178.85 C 487.36 206.82 490.57 234.76 493.08 262.76 C 496.35 262.31 499.52 261.09 502.89 261.49 C 502.17 258.06 501.96 254.55 501.59 251.07 C 498.73 223.42 495.90 195.76 493.02 168.10 C 492.80 165.46 492.19 162.77 492.82 160.14 C 498.12 134.66 503.49 109.19 508.71 83.68 C 505.77 83.16 502.85 82.58 499.93 82.00 Z" />
            <path class="a20 hand" fill="#000000" opacity="1.00" d=" M 402.06 343.73 C 403.77 343.14 405.46 342.49 407.15 341.84 C 410.96 347.38 417.12 351.50 424.01 351.48 C 430.73 352.12 437.86 350.44 442.60 345.39 C 444.51 350.38 448.01 354.90 452.94 357.21 C 457.59 359.66 463.02 359.22 468.10 359.00 C 476.04 358.24 482.69 351.94 484.84 344.39 C 488.16 348.17 492.72 350.63 497.68 351.44 C 492.51 359.96 491.14 370.78 494.58 380.20 C 500.23 402.63 506.87 424.83 512.94 447.17 C 514.47 453.47 517.58 459.41 522.23 463.98 C 522.11 468.29 522.47 472.63 522.02 476.93 C 521.10 482.04 516.16 486.03 510.98 485.98 C 505.07 486.07 499.15 485.94 493.23 486.03 C 494.23 475.71 493.43 465.30 493.69 454.94 C 494.24 444.33 484.67 434.42 474.00 434.88 C 450.05 434.94 426.10 434.72 402.16 434.99 C 402.30 431.98 402.33 428.96 402.32 425.95 C 405.00 427.29 407.95 428.07 410.96 428.03 C 430.64 428.03 450.33 428.04 470.01 428.03 C 480.20 428.25 489.38 419.18 489.51 409.03 C 489.54 399.66 489.53 390.29 489.51 380.93 C 489.42 370.78 480.25 361.54 470.00 361.88 C 450.64 361.85 431.29 361.89 411.94 361.86 C 408.62 361.78 405.27 362.34 402.32 363.91 C 402.10 357.18 402.41 350.44 402.06 343.73 Z" />
        </g>
        <g id="string" class="strings">
            <path class="string" fill="#ffffff" opacity="1.00" d=" M 444.44 60.88 C 447.44 60.83 450.44 60.80 453.45 60.84 C 453.69 95.55 453.99 130.27 454.22 164.98 C 454.02 173.22 455.95 181.30 456.79 189.46 C 460.52 216.45 463.71 243.53 467.77 270.46 C 464.46 270.18 461.22 270.80 458.12 271.90 C 453.92 239.58 449.51 207.29 445.32 174.97 C 445.00 136.94 444.74 98.91 444.44 60.88 Z" />
            <path class="string" fill="#ffffff" opacity="1.00" d=" M 385.25 82.61 C 388.18 82.00 391.13 81.48 394.09 80.99 C 394.16 81.36 394.30 82.08 394.37 82.44 C 405.37 142.83 416.44 203.22 427.26 263.64 C 424.21 263.24 421.13 263.41 418.37 264.86 C 407.48 204.54 396.52 144.24 385.51 83.95 L 385.25 82.61 Z" />
            <path class="string" fill="#ffffff" opacity="1.00" d=" M 499.93 82.00 C 502.85 82.58 505.77 83.16 508.71 83.68 C 503.49 109.19 498.12 134.66 492.82 160.14 C 492.19 162.77 492.80 165.46 493.02 168.10 C 495.90 195.76 498.73 223.42 501.59 251.07 C 501.96 254.55 502.17 258.06 502.89 261.49 C 499.52 261.09 496.35 262.31 493.08 262.76 C 490.57 234.76 487.36 206.82 484.59 178.85 C 484.10 172.95 482.94 167.03 483.56 161.11 C 488.78 134.70 494.50 108.38 499.93 82.00 Z" />
            <path class="string" fill="#ffffff" opacity="1.00" d=" M 521.20 170.33 C 530.27 151.48 538.99 132.44 548.20 113.66 C 550.87 114.89 553.53 116.17 556.20 117.43 C 547.36 136.11 538.54 154.81 529.69 173.49 C 528.91 174.88 529.00 176.48 529.15 178.01 C 531.82 204.54 534.39 231.08 537.04 257.61 C 533.77 257.12 530.59 257.85 527.47 258.76 C 525.27 232.85 522.34 207.00 519.98 181.10 C 519.82 177.49 519.44 173.64 521.20 170.33 Z" />
            <path class="string" fill="#ffffff" opacity="1.00" d=" M 345.81 209.21 C 347.26 207.92 348.75 206.66 350.22 205.39 C 364.56 221.95 378.55 238.81 392.86 255.40 C 392.86 255.59 392.85 255.96 392.84 256.14 C 389.06 256.92 385.09 256.58 381.38 255.58 C 368.85 241.48 356.94 226.81 344.53 212.61 L 343.47 211.42 C 344.23 210.67 345.01 209.93 345.81 209.21 Z" />
        </g>
</g>

<defs>
  <radialGradient id="meuGradiente" cx="50%" cy="50%" r="50%" fx="50%" fy="50%">
    <stop offset="0%" stop-color="rgb(0, 179, 255)" />
    <stop offset="33%" stop-color="rgb(0, 195, 255)" />
    <stop offset="66%" stop-color="rgb(0, 247, 255)" />
    <stop offset="100%" stop-color="rgb(0, 195, 255)" />
  </radialGradient>
</defs>


<defs>
  <filter id="shadowBehind" x="-20%" y="-20%" width="140%" height="140%" color-interpolation-filters="sRGB">
    <feDropShadow dx="0" dy="10" stdDeviation="10" flood-color="rgba(0, 0, 0, 0.4)" />
  </filter>
</defs>

<defs>
  <filter id="shadowBehindGlow" x="-20%" y="-20%" width="140%" height="140%" color-interpolation-filters="sRGB">
    <feDropShadow dx="0" dy="0" stdDeviation="5" flood-color="rgb(0, 247, 255)" />
  </filter>
</defs>

</svg>
