<?xml version="1.0" standalone="no"?>
<!DOCTYPE svg PUBLIC "-//W3C//DTD SVG 20010904//EN"
 "http://www.w3.org/TR/2001/REC-SVG-20010904/DTD/svg10.dtd">
<svg version="1.0" xmlns="http://www.w3.org/2000/svg"
 width="1920.000000pt" height="1080.000000pt" viewBox="0 0 1920.000000 1080.000000"
 preserveAspectRatio="xMidYMid meet">

<g transform="translate(0.000000,1080.000000) scale(0.100000,-0.100000)"
fill="#000000" stroke="none">
<path d="M8885 10596 c-129 -31 -242 -122 -300 -240 -42 -85 -52 -136 -54
-280 -2 -98 0 -113 23 -160 29 -59 76 -95 139 -106 23 -5 173 -10 334 -12
l291 -3 43 30 c23 17 53 50 66 74 21 40 23 57 23 180 0 150 -12 209 -56 292
-97 178 -312 273 -509 225z"/>
<path d="M7614 10125 c-170 -37 -307 -168 -350 -334 -19 -74 -15 -136 16 -276
29 -132 57 -180 123 -211 29 -13 63 -24 77 -24 43 0 592 110 619 125 57 29
101 101 101 163 0 82 -39 232 -81 313 -69 133 -194 226 -335 249 -74 12 -94
12 -170 -5z"/>
<path d="M10138 10089 c-113 -26 -238 -126 -291 -231 -28 -57 -67 -229 -67
-297 0 -53 30 -113 74 -146 28 -21 81 -36 293 -81 291 -62 339 -67 400 -36 74
38 94 78 128 262 16 88 17 101 3 170 -21 101 -51 161 -114 230 -106 114 -274
165 -426 129z"/>
<path d="M8653 9559 c-48 -23 -89 -67 -110 -116 -10 -26 -13 -156 -13 -658 l0
-625 -24 0 c-29 0 -18 -45 -111 449 -42 222 -83 422 -92 443 -20 50 -91 112
-147 128 -38 10 -61 9 -145 -5 -56 -10 -101 -22 -101 -28 0 -5 144 -823 320
-1818 176 -995 320 -1811 320 -1814 0 -3 10 -5 23 -5 31 -1 100 -33 146 -70
81 -65 120 -189 101 -322 l-10 -68 43 -42 c23 -24 53 -67 66 -96 14 -28 27
-52 31 -52 4 0 15 9 24 19 15 17 16 26 5 80 -15 76 -6 165 22 231 20 46 83
115 138 151 l25 15 -131 981 -130 980 -1 779 c-1 428 -5 938 -9 1132 l-6 352
-96 0 c-77 0 -104 -4 -138 -21z"/>
<path d="M9076 8908 c2 -370 6 -869 8 -1108 l4 -435 131 -981 c72 -539 131
-988 131 -997 0 -10 25 -28 64 -47 76 -36 137 -100 160 -167 19 -55 22 -214 5
-262 -10 -28 -9 -35 12 -57 l23 -24 16 43 c21 55 70 127 109 160 28 23 29 27
19 63 -5 21 -8 79 -6 129 3 76 8 98 33 143 16 30 42 65 58 78 l29 25 -101 982
c-56 540 -101 1014 -101 1052 0 78 6 108 202 1033 101 478 129 625 119 631
-24 15 -151 33 -190 26 -55 -9 -122 -56 -150 -105 -15 -27 -55 -185 -121 -483
l-98 -442 -1 621 -1 620 -26 52 c-18 35 -41 63 -72 85 -45 30 -52 32 -153 35
l-107 4 4 -674z"/>
<path d="M11120 9289 c-160 -31 -316 -197 -314 -334 0 -53 20 -101 57 -136 12
-12 128 -74 257 -137 180 -88 247 -116 286 -120 128 -11 224 108 232 288 13
286 -233 495 -518 439z"/>
<path d="M10177 9107 c-3 -12 -78 -366 -167 -785 l-161 -764 100 -981 c56
-540 103 -997 106 -1014 5 -26 11 -33 29 -33 12 0 47 -7 76 -16 76 -23 171
-118 194 -194 20 -69 20 -176 0 -236 -16 -47 -16 -47 11 -73 19 -18 29 -22 32
-13 3 7 20 33 38 57 l33 43 -21 43 c-29 59 -34 153 -12 232 23 82 40 114 85
162 l38 40 -79 785 c-43 432 -78 830 -78 885 l0 100 268 595 268 595 -61 29
c-89 42 -161 46 -231 12 -30 -15 -64 -40 -75 -57 -12 -16 -60 -113 -106 -216
-47 -104 -89 -192 -94 -197 -28 -29 -14 63 59 395 85 385 88 405 54 474 -20
39 -61 83 -94 100 -14 8 -57 21 -95 29 -38 9 -79 18 -90 21 -17 4 -23 -1 -27
-18z"/>
<path d="M7629 9101 c-76 -17 -113 -38 -150 -85 -27 -34 -49 -90 -49 -123 0
-15 83 -468 185 -1006 102 -539 184 -981 182 -983 -2 -2 -28 26 -57 63 -87
106 -188 139 -288 93 -24 -11 -126 -88 -228 -171 l-184 -152 27 -36 c38 -50
837 -1062 900 -1139 80 -100 116 -252 82 -351 -10 -30 -9 -34 31 -77 23 -25
53 -70 67 -101 l25 -55 30 29 c26 27 28 32 17 59 -17 41 -16 190 0 239 21 59
56 107 106 145 25 19 45 38 45 43 0 11 -615 3495 -631 3575 -6 28 -16 52 -22
51 -7 0 -46 -8 -88 -18z"/>
<path d="M11077 8408 c-13 -29 -131 -291 -261 -581 l-238 -529 82 -831 c45
-458 84 -834 86 -836 26 -28 64 154 101 481 10 98 16 262 19 524 l3 380 251
554 c138 304 253 572 256 594 8 54 -9 113 -45 163 -23 31 -51 51 -126 87 -53
25 -98 46 -101 46 -2 0 -15 -24 -27 -52z"/>
<path d="M6788 7675 c-80 -22 -139 -56 -208 -121 -189 -179 -212 -449 -56
-667 79 -111 158 -141 254 -97 44 20 483 389 540 454 61 69 65 158 11 239 -60
92 -151 156 -268 191 -65 19 -205 20 -273 1z"/>
<path d="M6900 6576 c-16 -42 -12 -117 9 -161 11 -22 153 -202 316 -400 163
-198 306 -371 316 -384 18 -23 20 -23 53 -7 19 9 39 16 44 16 6 0 13 4 17 9 4
8 -677 885 -730 940 -12 12 -16 11 -25 -13z"/>
<path d="M7695 5438 c-55 -30 -68 -85 -39 -158 16 -38 18 -40 50 -34 18 3 57
9 86 13 45 5 53 9 58 31 17 68 -43 160 -103 160 -18 0 -41 -6 -52 -12z"/>
<path d="M10701 5407 c-60 -31 -93 -140 -55 -183 17 -17 28 -20 92 -16 73 4
74 4 88 38 30 73 11 134 -52 160 -40 17 -43 17 -73 1z"/>
<path d="M9989 5290 c-28 -27 -30 -34 -27 -92 l3 -63 89 -3 c65 -2 92 1 98 10
11 19 10 96 -3 121 -33 64 -111 77 -160 27z"/>
<path d="M8473 5295 c-36 -15 -63 -60 -63 -104 0 -59 4 -61 105 -61 100 0 105
3 105 56 0 47 -27 94 -64 109 -42 18 -43 18 -83 0z"/>
<path d="M9221 5134 c-34 -28 -47 -74 -37 -129 l7 -35 93 0 94 0 6 35 c23 118
-80 199 -163 129z"/>
<path d="M7718 5011 c-31 -10 -72 -28 -91 -40 -46 -28 -81 -99 -74 -149 7 -54
194 -593 215 -622 22 -31 97 -70 132 -70 36 0 151 38 173 57 15 14 17 36 17
170 l0 153 -72 211 c-43 129 -81 223 -96 240 -51 61 -119 78 -204 50z"/>
<path d="M10670 4959 c-20 -11 -45 -35 -57 -52 -12 -18 -46 -125 -77 -239 -55
-203 -56 -208 -56 -341 l0 -136 70 24 c78 27 246 65 284 65 15 0 27 7 30 18
48 159 126 466 126 496 0 84 -51 140 -155 171 -72 20 -123 19 -165 -6z"/>
<path d="M8430 4893 c-38 -15 -74 -50 -91 -87 -17 -37 -19 -70 -19 -354 0
-340 2 -353 56 -404 40 -37 75 -48 155 -48 82 0 135 22 171 72 l23 33 0 347
c0 334 -1 347 -21 374 -43 58 -68 69 -167 71 -51 1 -99 0 -107 -4z"/>
<path d="M9919 4877 c-48 -32 -77 -80 -84 -140 -4 -29 -5 -178 -3 -332 3 -313
5 -318 75 -372 30 -23 48 -28 111 -32 41 -2 92 2 112 8 53 16 107 78 115 133
3 24 5 178 3 344 l-3 301 -25 36 c-40 59 -84 77 -182 77 -72 0 -90 -4 -119
-23z"/>
<path d="M9151 4723 c-18 -9 -45 -34 -60 -56 l-26 -40 -3 -293 c-4 -335 2
-384 51 -434 43 -44 64 -50 166 -50 105 0 143 19 179 90 22 44 23 49 20 371
l-3 326 -28 36 c-15 20 -41 44 -57 52 -41 21 -194 20 -239 -2z"/>
<path d="M10801 4064 c-364 -61 -669 -293 -727 -552 -61 -275 148 -554 516
-686 140 -51 235 -68 401 -73 185 -6 305 10 467 63 427 139 649 472 520 778
-97 231 -371 411 -712 471 -110 19 -349 18 -465 -1z m461 -159 c316 -42 511
-156 483 -285 -20 -92 -206 -187 -439 -225 -122 -20 -417 -20 -541 0 -182 29
-353 104 -407 179 -152 208 374 401 904 331z"/>
<path d="M8088 3943 l-38 -16 0 -198 c0 -110 3 -199 6 -199 3 0 26 7 52 15 41
14 138 15 722 13 l675 -3 58 -28 c80 -40 151 -112 190 -194 l32 -68 0 -365 0
-365 -27 -58 c-38 -81 -124 -168 -201 -203 l-62 -29 -667 -3 c-630 -2 -670 -1
-723 16 l-55 19 0 -88 0 -89 768 -2 767 -3 55 -26 c82 -38 154 -109 192 -187
l33 -67 3 -368 3 -368 207 3 c206 3 207 3 255 31 26 15 60 47 75 69 26 40 27
48 30 190 l3 148 -39 48 c-89 106 -100 138 -297 841 -102 365 -185 673 -185
683 0 11 -12 54 -26 96 -60 180 -47 378 34 539 22 43 20 53 -9 53 -33 0 -130
49 -180 91 -30 25 -49 35 -49 26 0 -29 -53 -113 -102 -164 -30 -31 -76 -63
-112 -80 -55 -25 -73 -28 -190 -31 -122 -3 -134 -2 -200 24 -82 32 -179 121
-210 194 -11 25 -21 47 -22 49 -2 2 -22 -13 -45 -33 -63 -54 -137 -78 -250
-84 -166 -7 -257 25 -356 125 -35 35 -66 63 -70 62 -5 -1 -25 -8 -45 -16z"/>
<path d="M8140 3308 c-18 -13 -43 -36 -54 -51 -20 -27 -21 -42 -24 -342 -3
-352 -2 -361 64 -411 l37 -29 634 -3 c707 -3 676 -5 731 66 l27 35 0 328 c0
317 -1 328 -21 356 -11 15 -36 38 -54 51 l-33 22 -637 0 -637 0 -33 -22z m199
-141 c5 -13 12 -104 16 -203 4 -98 12 -187 17 -198 8 -14 17 -17 41 -12 54 11
57 22 57 225 0 102 4 192 9 199 5 8 22 12 42 10 l34 -3 8 -95 c5 -52 6 -141 3
-197 -8 -177 -49 -230 -169 -221 -52 4 -64 9 -88 36 -15 17 -33 48 -38 69 -12
41 -15 395 -4 406 3 4 19 7 35 7 21 0 31 -6 37 -23z m375 1 c8 -13 38 -78 66
-145 29 -68 53 -123 55 -123 2 0 1 63 -2 139 l-6 140 26 6 c57 15 61 8 68
-100 4 -55 7 -169 8 -253 1 -165 -1 -171 -52 -158 -19 4 -37 35 -88 143 l-64
137 -5 -139 -5 -140 -33 -3 c-62 -6 -62 -4 -62 257 0 171 3 240 12 249 20 20
66 14 82 -10z m552 -8 c39 -36 53 -79 60 -177 8 -107 -9 -222 -39 -259 -41
-53 -137 -70 -217 -38 -30 12 -47 28 -63 58 -20 37 -22 56 -22 186 0 132 2
149 23 188 31 57 67 73 159 69 60 -2 76 -6 99 -27z"/>
<path d="M9115 3095 c-24 -23 -25 -28 -25 -170 0 -172 5 -188 58 -179 65 11
72 28 72 184 0 76 -4 150 -10 164 -13 35 -61 36 -95 1z"/>
<path d="M10250 2748 c0 -18 238 -863 256 -909 67 -171 254 -299 439 -299 173
0 345 101 423 249 79 149 80 242 2 516 -28 99 -55 196 -60 216 l-10 35 -57 -7
c-88 -11 -318 -10 -411 1 -174 22 -358 82 -504 165 -43 24 -78 39 -78 33z"/>
<path d="M8019 1847 c-18 -12 -44 -38 -56 -56 -23 -34 -23 -38 -23 -351 0
-312 0 -318 23 -350 12 -18 35 -43 50 -54 28 -21 35 -21 771 -24 l742 -2 35
23 c48 32 77 80 84 140 4 29 5 172 3 318 -3 260 -3 266 -27 300 -13 19 -35 43
-50 54 -25 20 -44 20 -772 23 l-745 2 -35 -23z m401 -127 c17 -17 20 -33 20
-103 0 -125 -2 -127 -154 -127 -81 0 -126 4 -134 12 -8 8 -12 48 -12 115 0 87
3 104 18 112 9 6 68 11 130 11 99 0 114 -2 132 -20z m498 4 c20 -14 22 -23 22
-109 0 -126 1 -125 -150 -125 -151 0 -150 -1 -150 125 0 122 4 125 150 125 79
0 111 -4 128 -16z m503 6 c17 -10 19 -22 19 -113 0 -67 -4 -107 -12 -115 -17
-17 -249 -17 -266 0 -8 8 -12 48 -12 115 0 87 3 104 18 112 23 14 228 14 253
1z m-1000 -360 c17 -10 19 -22 19 -115 0 -93 -2 -105 -19 -115 -31 -16 -233
-13 -257 4 -27 20 -34 174 -10 211 16 24 20 25 132 25 63 0 124 -5 135 -10z
m513 -12 c11 -16 16 -46 16 -105 0 -121 -6 -126 -161 -121 -93 2 -122 6 -129
18 -5 8 -10 59 -10 112 0 82 3 99 18 107 9 6 70 11 134 11 110 0 118 -1 132
-22z m497 12 c17 -10 19 -22 19 -110 0 -128 -3 -130 -150 -130 -146 0 -150 3
-150 122 0 127 1 128 147 128 63 0 123 -5 134 -10z"/>
</g>
</svg>
